<?xml version="1.0" encoding="UTF-8" standalone="no"?>
<!DOCTYPE svg PUBLIC "-//W3C//DTD SVG 1.1//EN" "http://www.w3.org/Graphics/SVG/1.1/DTD/svg11.dtd">
<svg version="1.1" xmlns="http://www.w3.org/2000/svg" xmlns:xlink="http://www.w3.org/1999/xlink" preserveAspectRatio="xMidYMid meet" viewBox="0 0 640 640" width="640" height="640"><defs><path d="M622.35 318.15C622.35 483.73 487.93 618.15 322.35 618.15C156.78 618.15 22.35 483.73 22.35 318.15C22.35 152.58 156.78 18.15 322.35 18.15C487.93 18.15 622.35 152.58 622.35 318.15Z" id="apVVyf3FT"></path><path d="M286.24 574.54L286.24 494.86" id="dr07upktT"></path><path d="M384.88 166.01L322.4 61.77L259.83 166.01L259.83 339.4L197.35 416.51L197.35 541.77L259.83 479.14L384.88 479.14L447.35 541.77L447.35 416.51L384.88 339.4L384.88 166.01Z" id="c6c72W5roM"></path><path d="M358.46 574.54L358.46 494.86" id="eimSzgPSC"></path><path d="M322.35 562.82L322.35 492.48" id="a2QMIIFmdC"></path></defs><g><g><g><use xlink:href="#apVVyf3FT" opacity="1" fill="#f0da51" fill-opacity="1"></use></g><g><use xlink:href="#dr07upktT" opacity="1" fill="#02030c" fill-opacity="1"></use><g><use xlink:href="#dr07upktT" opacity="1" fill-opacity="0" stroke="#02030c" stroke-width="6" stroke-opacity="1"></use></g></g><g><use xlink:href="#c6c72W5roM" opacity="1" fill="#02030c" fill-opacity="1"></use><g><use xlink:href="#c6c72W5roM" opacity="1" fill-opacity="0" stroke="#02030c" stroke-width="1" stroke-opacity="1"></use></g></g><g><use xlink:href="#eimSzgPSC" opacity="1" fill="#02030c" fill-opacity="1"></use><g><use xlink:href="#eimSzgPSC" opacity="1" fill-opacity="0" stroke="#02030c" stroke-width="6" stroke-opacity="1"></use></g></g><g><use xlink:href="#a2QMIIFmdC" opacity="1" fill="#02030c" fill-opacity="1"></use><g><use xlink:href="#a2QMIIFmdC" opacity="1" fill-opacity="0" stroke="#02030c" stroke-width="6" stroke-opacity="1"></use></g></g></g></g></svg>